<svg xmlns="http://www.w3.org/2000/svg" style="display:none">
  <!-- ===== kategori ikonları (çizgi, 24x24) ===== -->
  <symbol id="i-hamburger" viewBox="0 0 24 24" fill="none" stroke="currentColor" stroke-width="1.7" stroke-linecap="round" stroke-linejoin="round">
    <path d="M3.5 8.2c0-2.6 3.8-4.7 8.5-4.7s8.5 2.1 8.5 4.7z"/>
    <path d="M3.5 11.4h17"/>
    <path d="M4 14.4h16c0 0-1 1.2-2.6 1.2-1.7 0-2-1.2-3.7-1.2s-2 1.2-3.7 1.2-2-1.2-3.7-1.2C4.9 14.4 4 14.4 4 14.4Z"/>
    <path d="M3.5 18.2h17c0 1.3-1 2.3-2.3 2.3H5.8a2.3 2.3 0 0 1-2.3-2.3Z"/>
  </symbol>
  <symbol id="i-special" viewBox="0 0 24 24" fill="none" stroke="currentColor" stroke-width="1.7" stroke-linecap="round" stroke-linejoin="round">
    <path d="m12 2.8 2.6 5.5 6 .8-4.4 4.2 1.1 6-5.3-2.9-5.3 2.9 1.1-6L3.4 9.1l6-.8z"/>
  </symbol>
  <symbol id="i-wings" viewBox="0 0 24 24" fill="none" stroke="currentColor" stroke-width="1.7" stroke-linecap="round" stroke-linejoin="round">
    <path d="M14.8 3.6c3.4 1.2 5.6 4.3 5.6 7.9 0 1.7-1.3 3-3 3h-1.6"/>
    <path d="M15.8 14.5c0 3.2-2.6 5.8-5.8 5.8-2.6 0-4.4-1.6-4.4-3.7 0-1.6 1.1-2.7 2.6-2.7"/>
    <path d="M8.2 13.9c-1.6-1.1-2.6-2.8-2.6-4.8 0-3.2 2.5-5.7 5.6-5.7 1.4 0 2.6.4 3.6 1.2"/>
    <circle cx="11.4" cy="9.4" r="1.6"/>
  </symbol>
  <symbol id="i-tenders" viewBox="0 0 24 24" fill="none" stroke="currentColor" stroke-width="1.7" stroke-linecap="round" stroke-linejoin="round">
    <path d="M6.6 3.8h3.1l1.4 13.4a2.9 2.9 0 0 1-5.8.3z"/>
    <path d="M13.3 5.6h3.1l1.1 11.6a2.9 2.9 0 0 1-5.8.3z"/>
  </symbol>
  <symbol id="i-icecek" viewBox="0 0 24 24" fill="none" stroke="currentColor" stroke-width="1.7" stroke-linecap="round" stroke-linejoin="round">
    <path d="M6.2 6.5h11.6l-1.3 13.1a1.6 1.6 0 0 1-1.6 1.4H9.1a1.6 1.6 0 0 1-1.6-1.4z"/>
    <path d="M5.4 6.5 7.6 2.9h8.8l2.2 3.6"/>
    <path d="M8.2 11.3h7.6"/>
  </symbol>
  <symbol id="i-menu-tumu" viewBox="0 0 24 24" fill="none" stroke="currentColor" stroke-width="1.7" stroke-linecap="round" stroke-linejoin="round">
    <rect x="3.4" y="3.4" width="7.2" height="7.2" rx="2"/>
    <rect x="13.4" y="3.4" width="7.2" height="7.2" rx="2"/>
    <rect x="3.4" y="13.4" width="7.2" height="7.2" rx="2"/>
    <rect x="13.4" y="13.4" width="7.2" height="7.2" rx="2"/>
  </symbol>

  <!-- ===== alerjen ikonları ===== -->
  <symbol id="a-gluten" viewBox="0 0 24 24" fill="none" stroke="currentColor" stroke-width="1.7" stroke-linecap="round" stroke-linejoin="round">
    <path d="M12 21V8.5"/>
    <path d="M12 8.2c0-2.2 1-4.2 2.6-5.4C15.9 4.2 16.4 6.4 15.8 8.4 14.5 8.9 13.1 8.8 12 8.2Z"/>
    <path d="M12 12.4c.9-1.7 2.6-2.8 4.5-2.9.3 1.9-.6 3.8-2.2 4.8-1-.3-1.8-1-2.3-1.9Z"/>
    <path d="M12 16.8c.9-1.7 2.6-2.8 4.5-2.9.3 1.9-.6 3.8-2.2 4.8-1-.3-1.8-1-2.3-1.9Z"/>
    <path d="M12 12.4c-.9-1.7-2.6-2.8-4.5-2.9-.3 1.9.6 3.8 2.2 4.8 1-.3 1.8-1 2.3-1.9Z"/>
    <path d="M12 16.8c-.9-1.7-2.6-2.8-4.5-2.9-.3 1.9.6 3.8 2.2 4.8 1-.3 1.8-1 2.3-1.9Z"/>
  </symbol>
  <symbol id="a-sut" viewBox="0 0 24 24" fill="none" stroke="currentColor" stroke-width="1.7" stroke-linecap="round" stroke-linejoin="round">
    <path d="M9 2.8h6v2.4l2 3.4v11a1.6 1.6 0 0 1-1.6 1.6H8.6A1.6 1.6 0 0 1 7 19.6v-11l2-3.4z"/>
    <path d="M7 12.6h10"/>
  </symbol>
  <symbol id="a-yumurta" viewBox="0 0 24 24" fill="none" stroke="currentColor" stroke-width="1.7" stroke-linecap="round" stroke-linejoin="round">
    <path d="M12 2.8c3.4 0 6.2 5.3 6.2 9.6a6.2 6.2 0 0 1-12.4 0C5.8 8.1 8.6 2.8 12 2.8Z"/>
  </symbol>
  <symbol id="a-susam" viewBox="0 0 24 24" fill="none" stroke="currentColor" stroke-width="1.7" stroke-linecap="round" stroke-linejoin="round">
    <ellipse cx="8" cy="8.4" rx="2.6" ry="3.6" transform="rotate(-25 8 8.4)"/>
    <ellipse cx="16" cy="10.4" rx="2.6" ry="3.6" transform="rotate(25 16 10.4)"/>
    <ellipse cx="11.4" cy="16.6" rx="2.6" ry="3.6" transform="rotate(-8 11.4 16.6)"/>
  </symbol>
  <symbol id="a-hardal" viewBox="0 0 24 24" fill="none" stroke="currentColor" stroke-width="1.7" stroke-linecap="round" stroke-linejoin="round">
    <path d="M9.4 7.6h5.2c1.2 0 2.2 1 2.3 2.2l.7 9.2a1.6 1.6 0 0 1-1.6 1.8H8a1.6 1.6 0 0 1-1.6-1.8l.7-9.2c.1-1.2 1.1-2.2 2.3-2.2Z"/>
    <path d="M10.6 7.6V4.2c0-.8.6-1.4 1.4-1.4s1.4.6 1.4 1.4v3.4"/>
    <path d="M9.6 12.4h4.8"/>
  </symbol>
  <symbol id="a-soya" viewBox="0 0 24 24" fill="none" stroke="currentColor" stroke-width="1.7" stroke-linecap="round" stroke-linejoin="round">
    <path d="M5.2 14.6c0-5 3.8-9.1 8.6-9.4 1.9-.1 3.6.5 4.9 1.7-1 4.9-5.2 8.6-10.2 8.6-1.2 0-2.3-.3-3.3-.9Z"/>
    <circle cx="10" cy="12.2" r="1.3"/>
    <circle cx="14" cy="9.6" r="1.3"/>
    <path d="M4.4 20.4c1.6-1.9 3.6-3.4 5.8-4.4"/>
  </symbol>
  <symbol id="a-sulfit" viewBox="0 0 24 24" fill="none" stroke="currentColor" stroke-width="1.7" stroke-linecap="round" stroke-linejoin="round">
    <path d="M10 2.8h4v6.1l4.4 8.2a2.4 2.4 0 0 1-2.1 3.5H7.7a2.4 2.4 0 0 1-2.1-3.5L10 8.9z"/>
    <path d="M8.2 14.8h7.6"/>
  </symbol>
  <symbol id="a-sertkabuklu" viewBox="0 0 24 24" fill="none" stroke="currentColor" stroke-width="1.7" stroke-linecap="round" stroke-linejoin="round">
    <circle cx="12" cy="12" r="9"/>
    <path d="M12 3v18"/>
    <path d="M8.4 5.2c-1.4 3.6-1.4 10 0 13.6"/>
    <path d="M15.6 5.2c1.4 3.6 1.4 10 0 13.6"/>
  </symbol>
  <symbol id="a-balik" viewBox="0 0 24 24" fill="none" stroke="currentColor" stroke-width="1.7" stroke-linecap="round" stroke-linejoin="round">
    <path d="M3.2 12c2.6-3.6 6-5.4 9.4-5.4 3 0 5.6 1.4 7.4 3.4-1.8 2-4.4 3.4-7.4 3.4-3.4 0-6.8-1.8-9.4-5.4z" transform="translate(0 2.6)"/>
    <path d="M20 12.2 22.8 9v6.4z"/>
    <circle cx="7.4" cy="13.4" r=".9" fill="currentColor" stroke="none"/>
  </symbol>
  <symbol id="a-kereviz" viewBox="0 0 24 24" fill="none" stroke="currentColor" stroke-width="1.7" stroke-linecap="round" stroke-linejoin="round">
    <path d="M8.4 21c-.7-4.6-.7-9.6 0-14.4"/>
    <path d="M12 21c-.4-5-.4-10.2 0-15.6"/>
    <path d="M15.6 21c.7-4.6.7-9.6 0-14.4"/>
    <path d="M6.6 6.6c1.2-1.6 2.6-2.8 4.2-3.6"/>
    <path d="M17.4 6.6c-1.2-1.6-2.6-2.8-4.2-3.6"/>
  </symbol>

  <!-- ===== arayüz ikonları ===== -->
  <symbol id="u-menu" viewBox="0 0 24 24" fill="none" stroke="currentColor" stroke-width="2" stroke-linecap="round">
    <path d="M4 7h16M4 12h16M4 17h16"/>
  </symbol>
  <symbol id="u-konum" viewBox="0 0 24 24" fill="none" stroke="currentColor" stroke-width="1.7" stroke-linecap="round" stroke-linejoin="round">
    <path d="M12 21.2c4-4.2 6-7.6 6-10.2a6 6 0 1 0-12 0c0 2.6 2 6 6 10.2Z"/>
    <circle cx="12" cy="10.8" r="2.4"/>
  </symbol>
  <symbol id="u-telefon" viewBox="0 0 24 24" fill="none" stroke="currentColor" stroke-width="1.7" stroke-linecap="round" stroke-linejoin="round">
    <path d="M6.4 3.6h3l1.5 3.8-2 1.4a11 11 0 0 0 5.3 5.3l1.4-2 3.8 1.5v3a1.8 1.8 0 0 1-2 1.8C10.6 17.8 6.2 13.4 4.6 5.6a1.8 1.8 0 0 1 1.8-2Z"/>
  </symbol>
  <symbol id="u-saat" viewBox="0 0 24 24" fill="none" stroke="currentColor" stroke-width="1.7" stroke-linecap="round" stroke-linejoin="round">
    <circle cx="12" cy="12" r="9"/>
    <path d="M12 6.8V12l3.4 2.2"/>
  </symbol>
  <symbol id="u-uyari" viewBox="0 0 24 24" fill="none" stroke="currentColor" stroke-width="1.7" stroke-linecap="round" stroke-linejoin="round">
    <path d="M12 3.6 22 20.4H2z"/>
    <path d="M12 9.6v4.6"/>
    <circle cx="12" cy="17.4" r=".9" fill="currentColor" stroke="none"/>
  </symbol>
  <symbol id="u-paket" viewBox="0 0 24 24" fill="none" stroke="currentColor" stroke-width="1.7" stroke-linecap="round" stroke-linejoin="round">
    <path d="M3.4 7.6 12 3.2l8.6 4.4v8.8L12 20.8l-8.6-4.4z"/>
    <path d="m3.4 7.6 8.6 4.4 8.6-4.4M12 12v8.8"/>
  </symbol>
  <symbol id="u-aci" viewBox="0 0 24 24" fill="none" stroke="currentColor" stroke-width="1.7" stroke-linecap="round" stroke-linejoin="round">
    <path d="M15.6 7.4c-3.4 0-6.2 2.6-6.2 5.9 0 4-3 6.9-6.4 6.9 5.6 1 11-1.2 13.6-5.2 1.4-2.1 1.8-4.2 1.6-5.7-.6-1.3-1.6-1.9-2.6-1.9Z"/>
    <path d="M15.6 7.4c.2-1.6-.4-3-1.6-3.8"/>
    <path d="M14 3.6c1.3-.5 2.8-.2 3.8.8"/>
  </symbol>
  <symbol id="u-ok" viewBox="0 0 24 24" fill="none" stroke="currentColor" stroke-width="2" stroke-linecap="round" stroke-linejoin="round">
    <path d="M5 12h13M13 6.6 18.4 12 13 17.4"/>
  </symbol>
</svg>
